<svg width="137" height="113" viewBox="0 0 137 113" fill="none" xmlns="http://www.w3.org/2000/svg">
<path d="M92.8699 106.362C81.5683 106.047 70.4127 103.725 59.9245 99.5033C54.1999 97.1957 48.7113 94.3418 43.5345 90.9808C38.3985 87.6457 33.5954 83.8234 29.1926 79.5671C24.7885 75.3134 20.8024 70.6473 17.289 65.6327C13.7757 60.645 10.7565 55.3273 8.27342 49.7547L14.1889 49.6548L27.8465 49.4545L49.8534 72.5729L81.8796 72.0136L85.0496 66.2819L95.3678 66.1009L100.683 74.9548L95.6818 83.9874L85.3636 84.1686L81.9954 78.5509L47.0845 79.159L25.0775 56.0428L17.6753 56.1708C25.392 69.4136 36.3498 80.4761 49.5188 88.3181C62.6879 96.1601 77.6352 100.524 92.9549 100.999L96.3559 94.7808L106.674 94.5999L111.99 103.454L106.988 112.486L96.668 112.668L92.8699 106.362ZM99.5722 100.085L97.5716 103.699L99.6992 107.24L103.825 107.167L105.826 103.554L103.699 100.012L99.5722 100.085ZM88.2683 71.5855L86.2677 75.1997L88.3944 78.7418L92.5216 78.6688L94.5223 75.0566L92.3966 71.5135L88.2683 71.5855ZM69.3747 59.5617L57.6088 59.7678L37.4613 44.9101L12.2464 45.3492L6.46768 45.4494C5.63942 43.2967 4.87795 41.107 4.18473 38.9173L9.8286 38.8172L39.5479 38.3321L59.6973 53.1898L69.2594 53.0228L72.4284 47.29L82.7466 47.1108L88.0622 55.9646L83.0607 64.9975L72.7405 65.1785L69.3747 59.5617ZM75.6193 52.6067L73.6187 56.2186L75.7454 59.7608L79.8717 59.6877L81.8723 56.0758L79.7447 52.5346L75.6193 52.6067ZM85.0613 41.7031L64.4239 42.0643L49.3581 34.515L4.53592 35.2973V35.2631L3.19468 35.285C2.60649 33.1284 2.12106 30.9699 1.70593 28.7752L7.17396 28.675L50.8269 27.9148L65.9312 35.4963L84.9543 35.1632L88.1233 29.4304L98.4415 29.2492L103.757 38.1031L98.7555 47.1379L88.4354 47.3189L85.0613 41.7031ZM91.2722 34.747L89.2716 38.3612L91.3982 41.9024L95.5255 41.8313L97.5261 38.2171L95.3995 34.675L91.2722 34.747ZM97.6795 23.3833L2.74043 25.0399L1.08806 25.0699C0.741947 22.9072 0.49678 20.7446 0.320724 18.5459L2.59048 18.5049L97.5662 16.8473L100.734 11.1146L111.055 10.9334L116.37 19.7872L111.369 28.8221L101.048 29.0011L97.6795 23.3833ZM103.924 16.4612L102.124 19.7272L102.136 20.3814L104.05 23.5824V23.6175L108.18 23.5445L110.181 19.9303L108.055 16.3902L103.924 16.4612ZM0.00861421 12.426C-0.0113921 11.3257 0.00837976 10.2583 0.0183829 9.15596L1.98043 9.12201L77.3821 7.80544L87.8854 0.00293061H123.388L122.551 1.51561L124.677 5.05652L128.806 4.9835L130.807 1.37153L129.987 0.00293061H136.243L137 1.26334L131.998 10.2962L121.68 10.4752L118.313 4.85749L91.7226 5.32272L79.6299 14.3085L2.09423 15.6619L0.13463 15.6959C0.0836144 14.5945 0.0305508 13.5283 0.0115448 12.429L0.00861421 12.426ZM0.573734 0H67.7951L64.9583 2.06974L5.65639 3.10498V3.13893L0.254786 3.23295C0.346814 2.15761 0.453625 1.07827 0.576664 0.00293061L0.573734 0Z" fill="#F3F3F3"/>
</svg>
