<svg width="39" height="47" viewBox="0 0 39 47" fill="none" xmlns="http://www.w3.org/2000/svg">
<path d="M36.4122 6.19758C25.4475 -1.94043 13.6262 -2.14292 2.33645 6.05786C2.00498 6.30697 1.7847 6.67637 1.72308 7.0864C1.66147 7.49644 1.76346 7.91426 2.00707 8.24979C2.25068 8.58532 2.61639 8.81167 3.02535 8.88005C3.43431 8.94842 3.85376 8.85333 4.19327 8.61529C14.3956 1.20624 24.7064 1.45226 34.5321 8.74083C34.6985 8.86823 34.8885 8.96126 35.0912 9.01452C35.2939 9.06778 35.5051 9.0802 35.7127 9.05106C35.9202 9.02192 36.1198 8.9518 36.3 8.84478C36.4802 8.73775 36.6373 8.59597 36.7621 8.42767C36.887 8.25938 36.9771 8.06793 37.0273 7.86447C37.0775 7.66101 37.0867 7.4496 37.0544 7.24254C37.0222 7.03548 36.949 6.83692 36.8393 6.65839C36.7296 6.47986 36.5854 6.32494 36.4152 6.20264L36.4122 6.19758Z" fill="#387B96"/>
<path d="M19.2777 6.72912C12.5652 6.72912 3.9341 11.199 0.265014 16.7027C0.149941 16.8755 0.0700404 17.0693 0.0298706 17.2731C-0.0102992 17.4768 -0.00995111 17.6864 0.0308979 17.89C0.071747 18.0936 0.152293 18.2871 0.267942 18.4596C0.383591 18.6321 0.532079 18.7801 0.704922 18.8951C0.877764 19.0102 1.07158 19.0901 1.2753 19.1303C1.47902 19.1704 1.68866 19.1701 1.89225 19.1292C2.09584 19.0884 2.28938 19.0078 2.46184 18.8922C2.6343 18.7765 2.78229 18.6281 2.89736 18.4552C5.93469 13.8921 13.5948 9.88895 19.2807 9.88895C24.8491 9.88895 32.4617 12.8584 35.6063 18.3631C35.7071 18.5473 35.8436 18.7096 36.0079 18.8405C36.1721 18.9714 36.3608 19.0682 36.5629 19.1254C36.7651 19.1825 36.9765 19.1987 37.185 19.1732C37.3934 19.1477 37.5947 19.0808 37.7771 18.9766C37.9594 18.8724 38.1191 18.7329 38.2469 18.5662C38.3747 18.3995 38.468 18.2091 38.5214 18.0059C38.5747 17.8028 38.587 17.5911 38.5576 17.3831C38.5282 17.1752 38.4576 16.9752 38.35 16.7948C34.7275 10.4559 26.223 6.72912 19.2777 6.72912Z" fill="#387B96"/>
<path d="M10.7433 32.7499C10.7433 27.5804 14.5714 23.3747 19.2762 23.3747C23.981 23.3747 27.8091 27.5804 27.8091 32.7499V34.4356C27.8195 34.8477 27.9905 35.2394 28.2857 35.5272C28.5808 35.815 28.9768 35.976 29.389 35.976C29.8012 35.976 30.1971 35.815 30.4923 35.5272C30.7874 35.2394 30.9585 34.8477 30.9689 34.4356V32.7499C30.9689 25.838 25.7234 20.2138 19.2752 20.2138C12.827 20.2138 7.58351 25.8369 7.58351 32.7499C7.58351 39.4695 12.6356 43.0687 14.866 46.2903C14.982 46.466 15.1319 46.6167 15.3069 46.7337C15.4819 46.8506 15.6785 46.9314 15.8852 46.9713C16.0919 47.0112 16.3044 47.0095 16.5104 46.9661C16.7164 46.9228 16.9117 46.8387 17.0847 46.7189C17.2578 46.599 17.4051 46.4458 17.5182 46.2682C17.6312 46.0907 17.7076 45.8923 17.7429 45.6848C17.7783 45.4773 17.7718 45.2648 17.7239 45.0598C17.676 44.8549 17.5876 44.6615 17.4639 44.4912C15.0503 41.0054 10.7433 38.1138 10.7433 32.7499Z" fill="#387B96"/>
<path d="M36.7021 38.5127C41.5861 28.7457 32.9014 13.471 19.2769 13.471C14.4119 13.5492 9.76811 15.5166 6.32758 18.9571C2.88706 22.3977 0.919629 27.0415 0.841394 31.9065C0.841394 35.6525 1.32129 38.8124 3.66307 42.0947C3.90973 42.4274 4.27713 42.65 4.68624 42.7146C5.09534 42.7792 5.51344 42.6806 5.85058 42.44C6.18773 42.1995 6.41698 41.8362 6.489 41.4283C6.56102 41.0205 6.47006 40.6006 6.23569 40.2592C4.58642 37.9478 4.00123 35.7619 4.00123 31.9065C4.10253 27.8873 5.74434 24.0607 8.58724 21.2178C11.4301 18.3749 15.2567 16.7331 19.2759 16.6318C21.3662 16.6603 23.4286 17.1149 25.3371 17.9679C27.2456 18.8209 28.96 20.0544 30.3753 21.5928C34.5618 26.0475 36.0663 32.7205 33.8753 37.1034C33.3306 38.137 32.4489 38.9533 31.3766 39.417C30.3042 39.8807 29.1055 39.9639 27.9794 39.6529C26.8532 39.3418 25.8672 38.6552 25.1848 37.7068C24.5025 36.7584 24.1648 35.6053 24.2278 34.4386C24.2278 22.7196 12.2233 26.2247 14.3727 34.8224C14.4191 35.0277 14.5061 35.2218 14.6285 35.3931C14.751 35.5644 14.9064 35.7095 15.0857 35.8199C15.2651 35.9303 15.4646 36.0037 15.6727 36.0359C15.8808 36.0681 16.0933 36.0583 16.2976 36.0073C16.5018 35.9562 16.6938 35.8648 16.8623 35.7385C17.0308 35.6122 17.1723 35.4535 17.2786 35.2717C17.3849 35.0899 17.4538 34.8887 17.4812 34.6799C17.5086 34.4712 17.4941 34.259 17.4383 34.0559C16.8866 31.8478 17.899 30.1196 19.2769 30.1196C20.5141 30.1196 21.068 32.2892 21.068 34.4386C21.068 43.6873 32.9206 46.0766 36.7021 38.5127Z" fill="#387B96"/>
</svg>
