<svg width="37" height="26" viewBox="0 0 37 26" fill="none" xmlns="http://www.w3.org/2000/svg">
<path d="M27 5H7C3.13401 5 0 8.13401 0 12C0 15.866 3.13401 19 7 19H27C30.866 19 34 15.866 34 12C34 8.13401 30.866 5 27 5Z" fill="#6BAAC7"/>
<g style="mix-blend-mode:multiply">
<g style="mix-blend-mode:multiply" filter="url(#filter0_d_1_52)">
<g style="mix-blend-mode:multiply">
<path d="M34 12C34 6.47715 29.5228 2 24 2C18.4772 2 14 6.47715 14 12C14 17.5228 18.4772 22 24 22C29.5228 22 34 17.5228 34 12Z" fill="white"/>
</g>
</g>
<g style="mix-blend-mode:multiply" filter="url(#filter1_d_1_52)">
<g style="mix-blend-mode:multiply">
<path d="M34 12C34 6.47715 29.5228 2 24 2C18.4772 2 14 6.47715 14 12C14 17.5228 18.4772 22 24 22C29.5228 22 34 17.5228 34 12Z" fill="white"/>
</g>
</g>
<g style="mix-blend-mode:multiply" filter="url(#filter2_d_1_52)">
<g style="mix-blend-mode:multiply">
<path d="M34 12C34 6.47715 29.5228 2 24 2C18.4772 2 14 6.47715 14 12C14 17.5228 18.4772 22 24 22C29.5228 22 34 17.5228 34 12Z" fill="white"/>
</g>
</g>
</g>
<path d="M24 22C29.5228 22 34 17.5228 34 12C34 6.47715 29.5228 2 24 2C18.4772 2 14 6.47715 14 12C14 17.5228 18.4772 22 24 22Z" fill="#387B96"/>
<defs>
<filter id="filter0_d_1_52" x="11" y="0" width="26" height="26" filterUnits="userSpaceOnUse" color-interpolation-filters="sRGB">
<feFlood flood-opacity="0" result="BackgroundImageFix"/>
<feColorMatrix in="SourceAlpha" type="matrix" values="0 0 0 0 0 0 0 0 0 0 0 0 0 0 0 0 0 0 127 0" result="hardAlpha"/>
<feOffset dy="1"/>
<feGaussianBlur stdDeviation="1.5"/>
<feColorMatrix type="matrix" values="0 0 0 0 0 0 0 0 0 0 0 0 0 0 0 0 0 0 0.2 0"/>
<feBlend mode="normal" in2="BackgroundImageFix" result="effect1_dropShadow_1_52"/>
<feBlend mode="normal" in="SourceGraphic" in2="effect1_dropShadow_1_52" result="shape"/>
</filter>
<filter id="filter1_d_1_52" x="13" y="2" width="22" height="23" filterUnits="userSpaceOnUse" color-interpolation-filters="sRGB">
<feFlood flood-opacity="0" result="BackgroundImageFix"/>
<feColorMatrix in="SourceAlpha" type="matrix" values="0 0 0 0 0 0 0 0 0 0 0 0 0 0 0 0 0 0 127 0" result="hardAlpha"/>
<feOffset dy="2"/>
<feGaussianBlur stdDeviation="0.5"/>
<feColorMatrix type="matrix" values="0 0 0 0 0 0 0 0 0 0 0 0 0 0 0 0 0 0 0.122 0"/>
<feBlend mode="normal" in2="BackgroundImageFix" result="effect1_dropShadow_1_52"/>
<feBlend mode="normal" in="SourceGraphic" in2="effect1_dropShadow_1_52" result="shape"/>
</filter>
<filter id="filter2_d_1_52" x="13" y="2" width="22" height="22" filterUnits="userSpaceOnUse" color-interpolation-filters="sRGB">
<feFlood flood-opacity="0" result="BackgroundImageFix"/>
<feColorMatrix in="SourceAlpha" type="matrix" values="0 0 0 0 0 0 0 0 0 0 0 0 0 0 0 0 0 0 127 0" result="hardAlpha"/>
<feOffset dy="1"/>
<feGaussianBlur stdDeviation="0.5"/>
<feColorMatrix type="matrix" values="0 0 0 0 0 0 0 0 0 0 0 0 0 0 0 0 0 0 0.141 0"/>
<feBlend mode="normal" in2="BackgroundImageFix" result="effect1_dropShadow_1_52"/>
<feBlend mode="normal" in="SourceGraphic" in2="effect1_dropShadow_1_52" result="shape"/>
</filter>
</defs>
</svg>
