<svg width="15" height="12" viewBox="0 0 15 12" fill="none" xmlns="http://www.w3.org/2000/svg">
<path d="M7.4992 9.37521C6.64988 9.37461 5.83226 9.05261 5.21061 8.47391C4.58896 7.89521 4.20935 7.10269 4.14804 6.25559L1.69154 4.35457C1.36204 4.75905 1.07389 5.19553 0.831408 5.65746C0.777771 5.76356 0.749826 5.88079 0.749826 5.99968C0.749826 6.11857 0.777771 6.2358 0.831408 6.34191C1.45096 7.58268 2.40178 8.62781 3.57861 9.36158C4.75545 10.0954 6.11238 10.4892 7.4992 10.4994C8.11641 10.4956 8.73064 10.4134 9.3271 10.2546L8.1085 9.31327C7.90766 9.35198 7.70372 9.37237 7.4992 9.3742V9.37521ZM14.8545 10.737L12.2639 8.73342C13.051 8.07002 13.6982 7.25674 14.168 6.34089C14.2216 6.23479 14.2496 6.11756 14.2496 5.99867C14.2496 5.87978 14.2216 5.76255 14.168 5.65644C13.5482 4.41571 12.5972 3.37069 11.4202 2.63709C10.2432 1.90349 8.88608 1.50993 7.4992 1.49999C6.29256 1.50144 5.10552 1.80518 4.04649 2.38348L1.06497 0.0793038C1.02617 0.0490231 0.981781 0.0266838 0.934342 0.0135618C0.886903 0.000439839 0.837343 -0.00320762 0.788495 0.00282776C0.739646 0.00886315 0.692464 0.0244631 0.649646 0.0487366C0.606827 0.0730101 0.56921 0.105482 0.538943 0.144296L0.0789206 0.737349C0.0486953 0.776215 0.0264256 0.820656 0.0133843 0.868133C0.000342962 0.91561 -0.00321432 0.965191 0.00291578 1.01404C0.00904588 1.0629 0.0247432 1.11006 0.0491105 1.15284C0.0734778 1.19563 0.106037 1.23319 0.144928 1.26338L13.9344 11.9211C13.9733 11.9513 14.0177 11.9736 14.0652 11.9866C14.1127 11.9997 14.1623 12.0032 14.2111 11.9971C14.26 11.991 14.3071 11.9753 14.3499 11.9509C14.3927 11.9265 14.4303 11.894 14.4605 11.8551L14.9205 11.263C14.9507 11.2242 14.973 11.1797 14.986 11.1322C14.9991 11.0848 15.0026 11.0352 14.9965 10.9863C14.9904 10.9375 14.9747 10.8903 14.9503 10.8475C14.9259 10.8048 14.8934 10.7672 14.8545 10.737V10.737ZM10.5488 7.41326L9.62769 6.70241C9.76246 6.31688 9.78832 5.90166 9.70241 5.50239C9.61651 5.10312 9.42218 4.73527 9.14078 4.43928C8.85938 4.14329 8.50181 3.93063 8.10739 3.82467C7.71297 3.71871 7.29697 3.72357 6.90513 3.83869C7.04647 4.03017 7.12297 4.26179 7.12346 4.49979C7.11983 4.57908 7.10757 4.65773 7.0869 4.73437L5.36055 3.40101C5.95885 2.90106 6.71341 2.62654 7.4931 2.62517C7.93629 2.62504 8.37516 2.71223 8.78463 2.88177C9.19411 3.0513 9.56616 3.29986 9.87954 3.61324C10.1929 3.92662 10.4415 4.29868 10.611 4.70815C10.7806 5.11763 10.8678 5.5565 10.8676 5.99968C10.8675 6.4887 10.7586 6.97157 10.5488 7.41326V7.41326Z" fill="#979797"/>
</svg>
