<svg width="16" height="16" viewBox="0 0 16 16" fill="none" xmlns="http://www.w3.org/2000/svg">
<path d="M15.9595 13.7103C15.9259 13.548 15.8292 13.4058 15.6908 13.3148C15.5523 13.2239 15.3833 13.1916 15.2211 13.2252C15.0588 13.2588 14.9165 13.3555 14.8256 13.4939C14.7346 13.6324 14.7024 13.8013 14.7359 13.9635C14.7568 14.0584 14.7563 14.1568 14.7344 14.2514C14.7125 14.346 14.6697 14.4346 14.6093 14.5107C14.5494 14.5857 14.4732 14.6461 14.3865 14.6873C14.2999 14.7286 14.205 14.7496 14.109 14.7487H1.8999C1.80391 14.7496 1.70899 14.7286 1.62232 14.6873C1.53564 14.6461 1.45948 14.5857 1.39958 14.5107C1.33904 14.4347 1.29626 14.3461 1.27434 14.2514C1.25243 14.1568 1.25194 14.0584 1.27292 13.9635C1.59504 12.4487 2.41713 11.0862 3.6071 10.0949C4.79706 9.10352 6.28579 8.54095 7.83407 8.49755H8H8.16593C9.26837 8.52355 10.3484 8.81431 11.3148 9.34529C12.2813 9.87628 13.1058 10.6319 13.7188 11.5484C13.7646 11.6166 13.8233 11.6751 13.8917 11.7206C13.96 11.7661 14.0367 11.7977 14.1172 11.8136C14.1978 11.8295 14.2807 11.8293 14.3612 11.8132C14.4417 11.797 14.5183 11.7651 14.5865 11.7194C14.6547 11.6737 14.7132 11.6149 14.7587 11.5466C14.8042 11.4782 14.8358 11.4016 14.8517 11.321C14.8676 11.2405 14.8674 11.1576 14.8512 11.0771C14.8351 10.9966 14.8032 10.9201 14.7575 10.8519C13.7492 9.34573 12.2664 8.21974 10.5447 7.65283C11.2597 7.11869 11.7884 6.37298 12.0557 5.5215C12.3231 4.67001 12.3155 3.75598 12.034 2.90906C11.7525 2.06214 11.2115 1.32534 10.4876 0.803177C9.76377 0.281013 8.89385 0 8.00127 0C7.10868 0 6.23876 0.281013 5.51491 0.803177C4.79105 1.32534 4.25001 2.06214 3.96854 2.90906C3.68707 3.75598 3.67946 4.67001 3.94679 5.5215C4.21411 6.37298 4.74281 7.11869 5.45787 7.65283C4.1027 8.09846 2.88868 8.8928 1.93776 9.95607C0.986834 11.0193 0.3325 12.3141 0.0404839 13.7103C-0.0175444 13.9868 -0.0131411 14.2728 0.0533731 14.5474C0.119887 14.8221 0.246837 15.0784 0.424973 15.2978C0.603108 15.5171 0.827943 15.694 1.0831 15.8155C1.33825 15.937 1.61729 16 1.8999 16H14.1064C14.3885 15.9991 14.6668 15.9353 14.9212 15.8134C15.1756 15.6915 15.3996 15.5145 15.577 15.2953C15.7545 15.0761 15.8808 14.8201 15.947 14.5459C16.0132 14.2717 16.0174 13.9863 15.9595 13.7103V13.7103ZM5.00061 4.25115C5.00087 3.66454 5.17319 3.09089 5.49623 2.60121C5.81927 2.11153 6.27885 1.72733 6.81807 1.49617C7.35729 1.26501 7.95247 1.19705 8.52993 1.30069C9.10739 1.40433 9.64178 1.67503 10.0669 2.07927C10.4921 2.48352 10.7893 3.00355 10.9218 3.57499C11.0544 4.14644 11.0164 4.7442 10.8126 5.29427C10.6088 5.84435 10.2481 6.32258 9.77519 6.66976C9.30229 7.01695 8.73793 7.21784 8.15199 7.24757H7.85307C7.08408 7.20893 6.35931 6.87645 5.82847 6.31882C5.29762 5.76119 5.00127 5.02099 5.00061 4.25115V4.25115Z" fill="white"/>
</svg>
